<svg xmlns="http://www.w3.org/2000/svg" viewBox="0 0 1200 800" role="img" aria-labelledby="timeline-title timeline-desc">
  <title id="timeline-title">Microsoft and Mike Stevens, 2010 to 2020</title>
  <desc id="timeline-desc">A parallel timeline showing Microsoft milestones above the line and Mike Stevens's career milestones below it, with Microsoft's year-end stock closing price overlaid from 2010 through 2020. Company milestones include Azure general availability, Office 365 launching, Satya Nadella becoming CEO, Microsoft joining the Linux Foundation, and Microsoft acquiring GitHub. Personal milestones include joining Microsoft, moving to Germany to support USAFE, returning to the United States and joining Enterprise Skills Initiative, and teaching Azure in Cincinnati at the ten-year mark.</desc>

  <rect width="1200" height="760" fill="#ffffff"/>
  <rect x="24" y="24" width="1152" height="752" rx="18" fill="#f6f8fa" stroke="#d0d7de" stroke-width="2"/>

  <text x="70" y="83" fill="#24292f" font-family="-apple-system, BlinkMacSystemFont, 'Segoe UI', sans-serif" font-size="34" font-weight="700">Ten years of change</text>
  <text x="70" y="116" fill="#57606a" font-family="-apple-system, BlinkMacSystemFont, 'Segoe UI', sans-serif" font-size="18">Microsoft's cloud transformation—and a career evolving with it</text>

  <circle cx="82" cy="153" r="7" fill="#0969da"/>
  <text x="98" y="160" fill="#24292f" font-family="-apple-system, BlinkMacSystemFont, 'Segoe UI', sans-serif" font-size="17" font-weight="600">MICROSOFT MILESTONES</text>
  <circle cx="314" cy="153" r="7" fill="#57606a"/>
  <text x="330" y="160" fill="#24292f" font-family="-apple-system, BlinkMacSystemFont, 'Segoe UI', sans-serif" font-size="17" font-weight="600">MY MILESTONES</text>
  <circle cx="837" cy="153" r="7" fill="#1a7f37"/>
  <text x="853" y="160" fill="#24292f" font-family="-apple-system, BlinkMacSystemFont, 'Segoe UI', sans-serif" font-size="17" font-weight="600">MSFT YEAR-END CLOSE</text>

  <!-- MSFT unadjusted year-end closing price, USD -->
  <path d="M112 352 L210 354 L308 353 L405 343 L503 334 L601 325 L699 318 L797 294 L894 278 L992 222 L1090 158 L1090 380 L112 380 Z" fill="#1a7f37" fill-opacity="0.10"/>
  <polyline points="112,352 210,354 308,353 405,343 503,334 601,325 699,318 797,294 894,278 992,222 1090,158" fill="none" stroke="#1a7f37" stroke-width="4" stroke-linejoin="round" stroke-linecap="round"/>
  <g fill="#1a7f37" stroke="#ffffff" stroke-width="3">
    <circle cx="112" cy="352" r="6"/>
    <circle cx="210" cy="354" r="6"/>
    <circle cx="308" cy="353" r="6"/>
    <circle cx="405" cy="343" r="6"/>
    <circle cx="503" cy="334" r="6"/>
    <circle cx="601" cy="325" r="6"/>
    <circle cx="699" cy="318" r="6"/>
    <circle cx="797" cy="294" r="6"/>
    <circle cx="894" cy="278" r="6"/>
    <circle cx="992" cy="222" r="6"/>
    <circle cx="1090" cy="158" r="6"/>
  </g>
  <g fill="#57606a" font-family="-apple-system, BlinkMacSystemFont, 'Segoe UI', sans-serif" font-size="14">
    <text x="84" y="336">$27.91</text>
    <text x="1040" y="142">$222.42</text>
    <text x="1118" y="384">$0</text>
    <text x="1118" y="284">$100</text>
    <text x="1118" y="184">$200</text>
  </g>
  <line x1="1108" y1="150" x2="1108" y2="380" stroke="#1a7f37" stroke-width="2" stroke-opacity="0.65"/>
  <g stroke="#1a7f37" stroke-width="2" stroke-opacity="0.65">
    <line x1="1108" y1="380" x2="1115" y2="380"/>
    <line x1="1108" y1="280" x2="1115" y2="280"/>
    <line x1="1108" y1="180" x2="1115" y2="180"/>
  </g>

  <line x1="92" y1="392" x2="1108" y2="392" stroke="#8c959f" stroke-width="4" stroke-linecap="round"/>

  <!-- 2010: Microsoft -->
  <line x1="112" y1="392" x2="112" y2="235" stroke="#0969da" stroke-width="3"/>
  <circle cx="112" cy="392" r="10" fill="#0969da" stroke="#ffffff" stroke-width="4"/>
  <rect x="62" y="180" width="205" height="98" rx="10" fill="#ddf4ff" stroke="#54aeff"/>
  <text x="80" y="209" fill="#0550ae" font-family="-apple-system, BlinkMacSystemFont, 'Segoe UI', sans-serif" font-size="16" font-weight="700">FEB 2010</text>
  <text x="80" y="235" fill="#24292f" font-family="-apple-system, BlinkMacSystemFont, 'Segoe UI', sans-serif" font-size="17" font-weight="600">Azure becomes generally</text>
  <text x="80" y="258" fill="#24292f" font-family="-apple-system, BlinkMacSystemFont, 'Segoe UI', sans-serif" font-size="17" font-weight="600">available</text>

  <!-- 2010: Personal -->
  <line x1="112" y1="392" x2="112" y2="510" stroke="#57606a" stroke-width="3"/>
  <rect x="62" y="510" width="205" height="82" rx="10" fill="#eaeef2" stroke="#8c959f"/>
  <text x="80" y="540" fill="#57606a" font-family="-apple-system, BlinkMacSystemFont, 'Segoe UI', sans-serif" font-size="16" font-weight="700">JAN 2010</text>
  <text x="80" y="566" fill="#24292f" font-family="-apple-system, BlinkMacSystemFont, 'Segoe UI', sans-serif" font-size="17" font-weight="600">Join Microsoft as a PFE</text>

  <!-- 2011: Microsoft -->
  <line x1="270" y1="392" x2="270" y2="315" stroke="#0969da" stroke-width="3"/>
  <circle cx="270" cy="392" r="10" fill="#0969da" stroke="#ffffff" stroke-width="4"/>
  <rect x="196" y="274" width="202" height="78" rx="10" fill="#ddf4ff" stroke="#54aeff"/>
  <text x="214" y="303" fill="#0550ae" font-family="-apple-system, BlinkMacSystemFont, 'Segoe UI', sans-serif" font-size="16" font-weight="700">JUN 2011</text>
  <text x="214" y="329" fill="#24292f" font-family="-apple-system, BlinkMacSystemFont, 'Segoe UI', sans-serif" font-size="17" font-weight="600">Office 365 launches</text>

  <!-- 2013: Personal -->
  <line x1="407" y1="392" x2="407" y2="610" stroke="#57606a" stroke-width="3"/>
  <circle cx="407" cy="392" r="10" fill="#57606a" stroke="#ffffff" stroke-width="4"/>
  <rect x="329" y="610" width="220" height="102" rx="10" fill="#eaeef2" stroke="#8c959f"/>
  <text x="347" y="640" fill="#57606a" font-family="-apple-system, BlinkMacSystemFont, 'Segoe UI', sans-serif" font-size="16" font-weight="700">2013</text>
  <text x="347" y="666" fill="#24292f" font-family="-apple-system, BlinkMacSystemFont, 'Segoe UI', sans-serif" font-size="17" font-weight="600">Move to Germany</text>
  <text x="347" y="689" fill="#24292f" font-family="-apple-system, BlinkMacSystemFont, 'Segoe UI', sans-serif" font-size="17" font-weight="600">Support USAFE-AFAFRICA</text>

  <!-- 2014: Microsoft -->
  <line x1="520" y1="392" x2="520" y2="235" stroke="#0969da" stroke-width="3"/>
  <circle cx="520" cy="392" r="10" fill="#0969da" stroke="#ffffff" stroke-width="4"/>
  <rect x="447" y="190" width="220" height="78" rx="10" fill="#ddf4ff" stroke="#54aeff"/>
  <text x="465" y="219" fill="#0550ae" font-family="-apple-system, BlinkMacSystemFont, 'Segoe UI', sans-serif" font-size="16" font-weight="700">FEB 2014</text>
  <text x="465" y="245" fill="#24292f" font-family="-apple-system, BlinkMacSystemFont, 'Segoe UI', sans-serif" font-size="17" font-weight="600">Satya Nadella named CEO</text>

  <!-- 2016: Microsoft -->
  <line x1="686" y1="392" x2="686" y2="315" stroke="#0969da" stroke-width="3"/>
  <circle cx="686" cy="392" r="10" fill="#0969da" stroke="#ffffff" stroke-width="4"/>
  <rect x="615" y="274" width="230" height="78" rx="10" fill="#ddf4ff" stroke="#54aeff"/>
  <text x="633" y="303" fill="#0550ae" font-family="-apple-system, BlinkMacSystemFont, 'Segoe UI', sans-serif" font-size="16" font-weight="700">NOV 2016</text>
  <text x="633" y="329" fill="#24292f" font-family="-apple-system, BlinkMacSystemFont, 'Segoe UI', sans-serif" font-size="17" font-weight="600">Joins the Linux Foundation</text>

  <!-- 2018: Microsoft -->
  <line x1="850" y1="392" x2="850" y2="235" stroke="#0969da" stroke-width="3"/>
  <circle cx="850" cy="392" r="10" fill="#0969da" stroke="#ffffff" stroke-width="4"/>
  <rect x="780" y="180" width="205" height="98" rx="10" fill="#ddf4ff" stroke="#54aeff"/>
  <text x="798" y="209" fill="#0550ae" font-family="-apple-system, BlinkMacSystemFont, 'Segoe UI', sans-serif" font-size="16" font-weight="700">JUN 2018</text>
  <text x="798" y="235" fill="#24292f" font-family="-apple-system, BlinkMacSystemFont, 'Segoe UI', sans-serif" font-size="17" font-weight="600">Microsoft announces</text>
  <text x="798" y="258" fill="#24292f" font-family="-apple-system, BlinkMacSystemFont, 'Segoe UI', sans-serif" font-size="17" font-weight="600">GitHub acquisition</text>

  <!-- 2019: Personal -->
  <line x1="982" y1="392" x2="982" y2="510" stroke="#57606a" stroke-width="3"/>
  <circle cx="982" cy="392" r="10" fill="#57606a" stroke="#ffffff" stroke-width="4"/>
  <rect x="845" y="510" width="248" height="82" rx="10" fill="#eaeef2" stroke="#8c959f"/>
  <text x="863" y="540" fill="#57606a" font-family="-apple-system, BlinkMacSystemFont, 'Segoe UI', sans-serif" font-size="16" font-weight="700">2019</text>
  <text x="863" y="566" fill="#24292f" font-family="-apple-system, BlinkMacSystemFont, 'Segoe UI', sans-serif" font-size="17" font-weight="600">Return home • Join WWL/ESI</text>

  <!-- 2020: Personal -->
  <line x1="1090" y1="392" x2="1090" y2="610" stroke="#57606a" stroke-width="3"/>
  <circle cx="1090" cy="392" r="12" fill="#57606a" stroke="#ffffff" stroke-width="4"/>
  <rect x="934" y="610" width="210" height="102" rx="10" fill="#eaeef2" stroke="#8c959f"/>
  <text x="952" y="640" fill="#57606a" font-family="-apple-system, BlinkMacSystemFont, 'Segoe UI', sans-serif" font-size="16" font-weight="700">JAN 2020</text>
  <text x="952" y="666" fill="#24292f" font-family="-apple-system, BlinkMacSystemFont, 'Segoe UI', sans-serif" font-size="17" font-weight="600">Teach Azure in Cincinnati</text>
  <text x="952" y="689" fill="#24292f" font-family="-apple-system, BlinkMacSystemFont, 'Segoe UI', sans-serif" font-size="17" font-weight="600">Ten years at Microsoft</text>

  <g fill="#57606a" font-family="-apple-system, BlinkMacSystemFont, 'Segoe UI', sans-serif" font-size="15" font-weight="600" text-anchor="middle">
    <text x="112" y="421">2010</text>
    <text x="270" y="421">2011</text>
    <text x="407" y="421">2013</text>
    <text x="520" y="421">2014</text>
    <text x="686" y="421">2016</text>
    <text x="850" y="421">2018</text>
    <text x="982" y="421">2019</text>
    <text x="1090" y="421">2020</text>
  </g>

  <text x="70" y="757" fill="#57606a" font-family="-apple-system, BlinkMacSystemFont, 'Segoe UI', sans-serif" font-size="14">Company milestones: official Microsoft announcements • Stock: unadjusted year-end close, USD • Personal milestones: Ten Years at Microsoft</text>
</svg>
